PathFileType	4	(X/Y/Z)	/Users/itak/Documents/Research/Walk-IL/dataset/trc/00317_00011.trc
DataRate	CameraRate	NumFrames	NumMarkers	Units	OrigDataRate	OrigDataStartFrame	OrigNumFrames
100.000000	100.000000	4	53	mm	100.000000	316	506
Frame#	Time	RPSI			LPSI			L3			STRN			T10			C7			CLAV			RBAK			LBAK			LSHO			LUPA			LAEL			LAOL			LWTS			LWPS			LFRA			LHPS			LHTS			RSHO			RUPA			RAEL			RAOL			RWTS			RWPS			RFRA			RIFD			RHTS			RHPS			RBHD			LFHD			RFHD			LBHD			LHIP			RHIP			RASI			LASI			LKNE			LTHI			LANK			LTIP			LTOE			LMT1			LMT5			LHEE			RKNE			RTHI			RANK			RTIP			RTOE			RMT1			RMT5			RHEE			LIFD			
		X1	Y1	Z1	X2	Y2	Z2	X3	Y3	Z3	X4	Y4	Z4	X5	Y5	Z5	X6	Y6	Z6	X7	Y7	Z7	X8	Y8	Z8	X9	Y9	Z9	X10	Y10	Z10	X11	Y11	Z11	X12	Y12	Z12	X13	Y13	Z13	X14	Y14	Z14	X15	Y15	Z15	X16	Y16	Z16	X17	Y17	Z17	X18	Y18	Z18	X19	Y19	Z19	X20	Y20	Z20	X21	Y21	Z21	X22	Y22	Z22	X23	Y23	Z23	X24	Y24	Z24	X25	Y25	Z25	X26	Y26	Z26	X27	Y27	Z27	X28	Y28	Z28	X29	Y29	Z29	X30	Y30	Z30	X31	Y31	Z31	X32	Y32	Z32	X33	Y33	Z33	X34	Y34	Z34	X35	Y35	Z35	X36	Y36	Z36	X37	Y37	Z37	X38	Y38	Z38	X39	Y39	Z39	X40	Y40	Z40	X41	Y41	Z41	X42	Y42	Z42	X43	Y43	Z43	X44	Y44	Z44	X45	Y45	Z45	X46	Y46	Z46	X47	Y47	Z47	X48	Y48	Z48	X49	Y49	Z49	X50	Y50	Z50	X51	Y51	Z51	X52	Y52	Z52	X53	Y53	Z53	

317	3.16	-98.82955932617188	946.6944580078125	85.65525817871094	-87.96757507324219	943.0769653320312	-43.72502136230469	-98.81391906738281	1008.177124023438	30.13980102539062	137.3257904052734	1185.886352539062	16.21369171142578	-110.1765670776367	1127.928588867188	29.60590934753418	-65.73072814941406	1375.92236328125	6.673231601715088	90.68447875976562	1308.377197265625	8.619370460510254	-112.9981307983398	1238.658081054688	82.42108917236328	-79.87351989746094	1336.623657226562	-91.47145080566406	4.190865039825439	1344.532104492188	-151.4133758544922	-46.94869232177734	1233.846435546875	-213.6412353515625	-98.65849304199219	1038.336669921875	-221.5833892822266	-146.9717864990234	1041.20947265625	-152.1393280029297	-94.47615814208984	773.1085815429688	-204.4209899902344	-148.6334533691406	784.8862915039062	-245.9840698242188	-124.2818298339844	936.7288818359375	-231.7542572021484	-179.3942260742188	721.4908447265625	-237.193115234375	-125.6172485351562	695.7214965820312	-218.0440063476562	-0.8405547142028809	1362.513305664062	167.1210327148438	-3.630517482757568	1301.396484375	236.4725036621094	74.10121154785156	1051.333251953125	303.5784606933594	24.59565162658691	1016.017700195312	230.4914398193359	273.8230590820312	916.6107788085938	232.3393859863281	264.3090209960938	884.3309936523438	301.2782897949219	127.0273056030273	1002.263366699219	309.9393615722656	393.5990600585938	789.2588500976562	236.0397644042969	358.2886352539062	853.5198364257812	238.2865142822266	324.4891052246094	826.6739501953125	291.4698486328125	-30.24526405334473	1568.211669921875	83.69258117675781	132.7450561523438	1596.504760742188	-42.88357162475586	127.1340255737305	1599.609619140625	57.98320007324219	-48.97783660888672	1555.724487304688	-59.33032989501953	8.826057434082031	886.3726806640625	-127.6707763671875	-33.80619430541992	890.7905883789062	203.2254943847656	76.30673980712891	916.6307373046875	175.5961456298828	123.013313293457	917.9799194335938	-59.91697692871094	209.7028656005859	459.6868286132812	-98.57188415527344	159.7296905517578	590.166748046875	-124.4221878051758	286.366455078125	39.41017913818359	-78.82070159912109	247.2017059326172	246.8171691894531	-104.9926910400391	481.3576049804688	110.6914978027344	-34.07789993286133	423.67529296875	79.76686096191406	12.2933235168457	405.6307678222656	72.21405029296875	-99.58717346191406	257.28173828125	31.71875190734863	-9.602079391479492	-67.13223266601562	434.6380004882812	166.8834991455078	9.340843200683594	680.9610595703125	204.5390167236328	-282.9520874023438	74.49135589599609	110.4203033447266	-101.7506332397461	315.4857177734375	141.3879699707031	-97.69401550292969	39.04739761352539	57.30633926391602	-153.2211151123047	38.85402679443359	15.29012680053711	-188.6803283691406	40.84850692749023	127.8168411254883	-332.267578125	90.47084045410156	63.59731292724609	-157.9182891845703	623.7276000976562	-200.3121185302734	
318	3.17	-87.40715789794922	946.0443115234375	84.51648712158203	-76.66970062255859	942.4411010742188	-44.84663772583008	-87.82051849365234	1007.0869140625	29.06244850158691	148.0622406005859	1185.497924804688	15.27697563171387	-99.60839080810547	1126.951904296875	28.37667655944824	-55.56392669677734	1375.030395507812	5.486695766448975	101.084342956543	1307.889038085938	7.663845539093018	-102.8335647583008	1237.626220703125	80.94075775146484	-69.51283264160156	1335.674072265625	-92.80764007568359	14.71367073059082	1343.768432617188	-152.5941009521484	-35.17911529541016	1232.213134765625	-214.6947021484375	-84.71260833740234	1036.009521484375	-222.1885681152344	-133.4027557373047	1038.668212890625	-152.956298828125	-79.15408325195312	770.94482421875	-204.0158233642578	-133.0721435546875	782.4470825195312	-245.9333038330078	-109.5060577392578	934.32275390625	-231.9445648193359	-163.6588134765625	718.9933471679688	-237.2002716064453	-109.6811676025391	693.9954833984375	-217.7744445800781	9.030719757080078	1361.355224609375	166.1258544921875	5.856256008148193	1299.98583984375	235.2843627929688	80.87210083007812	1048.903076171875	301.7101135253906	31.27214622497559	1014.490783691406	228.3091735839844	278.3563537597656	910.2291870117188	231.1634216308594	268.2274780273438	878.4277954101562	300.1768188476562	133.0235137939453	998.8245849609375	308.3895568847656	395.7124633789062	780.731201171875	235.1941528320312	361.462158203125	845.30517578125	237.4278106689453	327.1719665527344	819.4060668945312	290.6266174316406	-20.56479263305664	1567.37255859375	82.79933929443359	142.5035400390625	1596.14404296875	-43.50971603393555	136.7053833007812	1599.161865234375	57.34451293945312	-39.06810760498047	1554.928466796875	-60.33000946044922	20.40962600708008	886.2205810546875	-128.9972534179688	-22.53446006774902	890.0413818359375	202.0450744628906	87.64994812011719	915.8423461914062	174.5533447265625	134.4202117919922	917.8208618164062	-61.03693008422852	221.1188201904297	459.6443786621094	-98.56166839599609	172.2637329101562	590.66845703125	-124.8354797363281	287.9805908203125	38.60559463500977	-78.14247894287109	254.5049896240234	245.0764465332031	-104.0300674438477	485.2979431152344	102.7520904541016	-33.07896423339844	426.6580505371094	72.94427490234375	13.24295520782471	408.2300415039062	67.3157958984375	-98.63280487060547	258.9920959472656	31.07171821594238	-8.857361793518066	-58.23171615600586	434.6225280761719	166.4317321777344	19.72912788391113	680.2677001953125	203.7010650634766	-280.9792785644531	78.22396087646484	111.0058898925781	-95.04727172851562	315.9014587402344	141.5024719238281	-97.33560180664062	39.09141540527344	57.39551544189453	-152.4972381591797	39.52759170532227	15.49617767333984	-187.6460723876953	41.73950958251953	128.3419799804688	-329.9251098632812	95.73610687255859	64.33218383789062	-142.2853240966797	621.3771362304688	-199.9405822753906	
319	3.18	-75.73486328125	945.52294921875	83.39748382568359	-65.09503936767578	942.1088256835938	-45.9871940612793	-76.60968017578125	1006.133361816406	28.01759910583496	158.8805694580078	1185.390380859375	14.26166915893555	-89.00657653808594	1126.150512695312	27.14775848388672	-45.38251113891602	1374.325805664062	4.233388423919678	111.5149307250977	1307.6640625	6.646453857421875	-92.62953948974609	1236.753173828125	79.39594268798828	-59.14091491699219	1334.880004882812	-94.19184875488281	25.27367973327637	1343.24658203125	-153.8359222412109	-23.32541847229004	1230.820678710938	-215.8177490234375	-70.50501251220703	1033.863891601562	-222.8976135253906	-119.541259765625	1036.279296875	-153.8567199707031	-63.19775009155273	768.9717407226562	-203.5819244384766	-116.829475402832	780.13818359375	-245.9246826171875	-94.31312561035156	932.089599609375	-232.2035064697266	-147.152587890625	716.5706787109375	-237.2428741455078	-92.94044494628906	692.5411376953125	-217.5021209716797	18.89749526977539	1360.402587890625	165.0588073730469	15.31474590301514	1298.78955078125	234.0233917236328	87.53373718261719	1046.69287109375	299.7202453613281	37.76456832885742	1013.226745605469	225.9234771728516	282.4723510742188	903.677490234375	230.0430297851562	271.6467590332031	872.4515380859375	299.171875	138.7991485595703	995.5113525390625	306.7931213378906	397.033203125	771.8616943359375	234.5446624755859	364.0959167480469	836.8613891601562	236.6732788085938	329.1895141601562	811.9535522460938	289.9128723144531	-10.83632564544678	1566.771850585938	81.88716888427734	152.3256072998047	1596.003784179688	-44.16276168823242	146.3262023925781	1598.930419921875	56.68624877929688	-29.10529899597168	1554.387939453125	-61.37344360351562	32.21512985229492	886.3699340820312	-130.3252105712891	-10.98134994506836	889.3480834960938	200.8531951904297	99.26661682128906	915.1943969726562	173.4980621337891	146.0482788085938	917.9633178710938	-62.15871047973633	232.3206787109375	459.7838134765625	-98.64693450927734	184.4314575195312	591.1569213867188	-125.2680740356445	289.3800659179688	38.28361129760742	-77.53562164306641	261.8390197753906	243.7008666992188	-103.0543670654297	488.9445495605469	94.80801391601562	-31.42135620117188	429.1128845214844	66.19704437255859	14.57165813446045	410.6636962890625	62.71828460693359	-97.27220153808594	260.3538513183594	30.89001083374023	-8.246912002563477	-48.601318359375	434.6563720703125	165.8212432861328	30.64871025085449	679.6421508789062	202.7819976806641	-278.5974731445312	82.37722015380859	111.6298980712891	-87.77970123291016	316.4606323242188	141.6112823486328	-96.97434997558594	39.15312576293945	57.49782943725586	-151.6454010009766	40.23430252075195	15.73366451263428	-186.420166015625	42.70000839233398	128.9138488769531	-327.0321350097656	101.5464248657227	65.11508941650391	-125.7414703369141	619.1521606445312	-199.5454559326172	
320	3.19	-63.85629653930664	945.1436157226562	82.29743957519531	-53.28531265258789	942.1021118164062	-47.14768600463867	-65.173828125	1005.351867675781	27.00462913513184	169.7659606933594	1185.572509765625	13.19725513458252	-78.34536743164062	1125.552978515625	25.88018035888672	-35.18024444580078	1373.840576171875	2.919334411621094	121.9751815795898	1307.7138671875	5.58884859085083	-82.37447357177734	1236.072631835938	77.78736877441406	-48.75318908691406	1334.266845703125	-95.61589050292969	35.88904571533203	1342.973022460938	-155.1279907226562	-11.3836784362793	1229.680541992188	-217.0025024414062	-56.07460021972656	1031.9345703125	-223.712158203125	-105.4108276367188	1034.0654296875	-154.8320617675781	-46.5958366394043	767.2466430664062	-203.1637115478516	-99.93310546875	777.989013671875	-245.9616851806641	-78.75716400146484	930.0574340820312	-232.5447845458984	-129.8852691650391	714.2393798828125	-237.3127746582031	-75.42340850830078	691.36279296875	-217.2324066162109	28.7679386138916	1359.691040039062	163.9439697265625	24.73451232910156	1297.827758789062	232.705810546875	94.10270690917969	1044.734252929688	297.6112976074219	44.11331558227539	1012.244323730469	223.3357086181641	286.1528930664062	897.0064086914062	228.9892730712891	274.5447692871094	866.457763671875	298.2750244140625	144.3727416992188	992.37646484375	305.1250610351562	397.5139770507812	762.694580078125	234.1330261230469	366.1753234863281	828.276611328125	236.0238494873047	330.5190124511719	804.3912963867188	289.3509521484375	-1.07309889793396	1566.442993164062	80.95244598388672	162.2060546875	1596.103149414062	-44.83788299560547	155.9998321533203	1598.941528320312	56.00640106201172	-19.09222412109375	1554.135620117188	-62.45722961425781	44.19158554077148	886.8076171875	-131.6393432617188	0.8232572674751282	888.7353515625	199.6589508056641	111.1333160400391	914.711669921875	172.4249725341797	157.8476715087891	918.3948974609375	-63.26734924316406	243.3789215087891	460.1072998046875	-98.82946014404297	196.1711120605469	591.6157836914062	-125.670783996582	290.8093872070312	38.39422225952148	-77.02486419677734	269.3660278320312	242.7753753662109	-102.1318511962891	492.4114685058594	87.09705352783203	-29.13752174377441	431.1799011230469	59.75616073608398	16.24902153015137	413.123779296875	58.53757476806641	-95.52669525146484	261.5860595703125	31.15889739990234	-7.810568809509277	-38.14196014404297	434.7474060058594	165.0388031005859	42.11388778686523	679.1192626953125	201.7837982177734	-275.703125	86.97304534912109	112.278678894043	-79.84857177734375	317.1772766113281	141.7298889160156	-96.61094665527344	39.22914123535156	57.62034606933594	-150.6465759277344	40.96182250976562	16.00378799438477	-184.9741058349609	43.70113372802734	129.4935760498047	-323.4573364257812	107.9332580566406	65.92822265625	-108.2394409179688	617.078125	-199.1368103027344	
